<svg xmlns="http://www.w3.org/2000/svg" width="15" height="13.637" viewBox="0 0 15 13.637">
  <g id="wishlist" transform="translate(-6.311 -119.395)">
    <path id="Bg" d="M12.588,1.083A3.5,3.5,0,0,0,7.624.974l-.8.825-.689-.716A3.5,3.5,0,0,0,1.167.974a.825.825,0,0,0-.109.109,3.78,3.78,0,0,0,0,5.236l.689.716L6.82,12.272l5.073-5.236.689-.716a3.774,3.774,0,0,0,.007-5.236Z" transform="translate(6.991 120.078)" fill="none"/>
    <path id="border" d="M6.5,12.636h0a.7.7,0,0,1-.491-.2L.248,6.479A4.455,4.455,0,0,1,.248.3,1.193,1.193,0,0,1,.377.159,4.225,4.225,0,0,1,3.364-1,4.181,4.181,0,0,1,6.3.3l.2.2c.164-.17.314-.32.327-.334A4.2,4.2,0,0,1,12.759.3a.181.181,0,0,1,.034.041,4.449,4.449,0,0,1-.041,6.136L6.984,12.425A.65.65,0,0,1,6.5,12.636ZM3.268.363a2.819,2.819,0,0,0-1.95.784l-.089.089a3.1,3.1,0,0,0,0,4.3L6.5,10.972l5.277-5.448a3.092,3.092,0,0,0,0-4.289c-.014-.014-.02-.027-.034-.034a2.828,2.828,0,0,0-3.968-.055c-.061.061-.784.8-.784.8a.7.7,0,0,1-.491.2h0a.7.7,0,0,1-.491-.2L5.32,1.243A2.815,2.815,0,0,0,3.336.363Z" transform="translate(7.311 120.396)" fill="#aaa"/>
  </g>
</svg>
