<svg xmlns="http://www.w3.org/2000/svg" width="14.478" height="28.001" viewBox="0 0 14.478 28.001">
  <path id="_02" data-name="02" d="M7.556,26.3V18.244H6.818v8.04A1.685,1.685,0,0,1,5.081,28a1.611,1.611,0,0,1-1.659-1.734l.061-15.839H2.652v5.99a1.332,1.332,0,0,1-.393,1.045,1.344,1.344,0,0,1-.933.365,1.337,1.337,0,0,1-.934-.365A1.323,1.323,0,0,1,0,16.418V9.48A3.158,3.158,0,0,1,.846,7.289a3.241,3.241,0,0,1,2.4-1.028h7.992a3.226,3.226,0,0,1,2.4,1.033,3.144,3.144,0,0,1,.847,2.185v6.938a1.3,1.3,0,0,1-.4,1.045,1.459,1.459,0,0,1-1.9,0,1.3,1.3,0,0,1-.4-1.045v-5.99h-.815V26.267a1.7,1.7,0,1,1-3.391.034ZM7.188,5.729a2.865,2.865,0,1,1,2.877-2.865A2.872,2.872,0,0,1,7.2,5.729Z" transform="translate(0.002)" fill="#ee7676"/>
</svg>
